<?xml version="1.0" ?><svg data-name="Layer 1" id="Layer_1" viewBox="0 0 512 512" xmlns="http://www.w3.org/2000/svg"><path d="M246.59,218.15a38.71,38.71,0,1,0-38.71-38.71A38.75,38.75,0,0,0,246.59,218.15Zm-27.22-33.24h21.74v21.74A27.85,27.85,0,0,1,219.37,184.91Zm32.69,21.74V184.91H273.8A27.85,27.85,0,0,1,252.06,206.65ZM273.8,174H252.06V152.22A27.86,27.86,0,0,1,273.8,174Zm-32.69-21.74V174H219.37A27.86,27.86,0,0,1,241.11,152.22Z"/><path d="M170.29,303.9a5.48,5.48,0,0,0,5.47-5.48V239a5.47,5.47,0,0,0-5.47-5.47h-51.4a5.47,5.47,0,0,0-5.48,5.47v59.38a5.48,5.48,0,0,0,5.48,5.48Zm-45.93-59.38h40.45V293H124.36Z"/><path d="M445.07,344.14A20,20,0,0,0,470,341a19.77,19.77,0,0,0-3.72-30.58h0l-44.76-27.9v-62a27.73,27.73,0,0,0,27.14-7.33l.3-.31a27.56,27.56,0,0,0-5.17-42.61L260.62,56.12a26.68,26.68,0,0,0-28.07,0L49.38,170.27a27.55,27.55,0,0,0-5.18,42.59l.33.35a27.72,27.72,0,0,0,27.12,7.31v228.4H55.27a5.48,5.48,0,0,0,0,10.95H451.41a5.48,5.48,0,1,0,0-10.95h-17.7V337Zm19.52-18a9,9,0,0,1-2.65,7.44,8.88,8.88,0,0,1-11,1.31l-110.46-69.6a5.5,5.5,0,0,0-5.84,0l-110.46,69.6a9,9,0,0,1-11.24-1.52,8.83,8.83,0,0,1,1.66-13.66l118.64-73.94a8.12,8.12,0,0,1,8.64,0L412.8,290a5.09,5.09,0,0,0,.74.46l46.95,29.26A8.84,8.84,0,0,1,464.59,326.12ZM52.39,205.58l-.33-.34a16.6,16.6,0,0,1,3.12-25.68L238.34,65.41a15.47,15.47,0,0,1,16.49,0L438,179.56a16.6,16.6,0,0,1,3.11,25.69l-.3.32A16.72,16.72,0,0,1,420,208L249.5,100.59a5.48,5.48,0,0,0-5.83,0L73.13,208A16.69,16.69,0,0,1,52.39,205.58ZM82.6,215l164-103.33L410.57,215v60.66l-62.93-39.22a19.23,19.23,0,0,0-20.22,0L208.77,310.4A19.93,19.93,0,0,0,230,344.14L241.34,337V448.92H193.49V391.63a34,34,0,0,0-34-34h-.58a34,34,0,0,0-34,34v57.29H82.6Zm53.28,233.9V391.63a23.07,23.07,0,0,1,23-23h.58a23.07,23.07,0,0,1,23,23v57.29Zm286.88,0H252.29V330.08l85.24-53.71,85.23,53.71Z"/><path d="M295.32,336.23a5.47,5.47,0,0,0-5.47,5.47v84.42a5.47,5.47,0,0,0,5.47,5.47h84.41a5.47,5.47,0,0,0,5.48-5.47V341.7a5.47,5.47,0,0,0-5.48-5.47Zm36.73,10.95v31.26H300.8V347.18ZM300.8,389.39h31.25v31.25H300.8ZM343,420.64V389.39h31.26v31.25Zm31.26-42.2H343V347.18h31.26Z"/></svg>